<?xml version="1.0" encoding="utf-8"?>
<!-- Generator: Adobe Illustrator 19.1.0, SVG Export Plug-In . SVG Version: 6.00 Build 0)  -->
<!DOCTYPE svg PUBLIC "-//W3C//DTD SVG 1.0//EN" "http://www.w3.org/TR/2001/REC-SVG-20010904/DTD/svg10.dtd">
<svg version="1.0" id="Layer_1" xmlns="http://www.w3.org/2000/svg" xmlns:xlink="http://www.w3.org/1999/xlink" x="0px" y="0px"
	 viewBox="0 0 298.2 270.2" style="enable-background:new 0 0 298.2 270.2;" xml:space="preserve">
<style type="text/css">
	.st0{fill:#FFFFFF;}
</style>
<rect width="298.2" height="270.2"/>
<path class="st0" d="M137.8,199.2c0,0-0.5,19.5,0.8,33.7c1.3,14.2,5.4,26,17.9,28s11.9-0.1,18.6,0.5c6.7,0.7,17.4,1.5,17.4,1.5
	l-9.4-7.5l8.2-8.9l-12.9,5.2l0.1-12.9l-7.7,14c0,0-10.2-0.4-12.5-4.9s2-48.7,2-48.7S150.7,200.4,137.8,199.2z"/>
<path class="st0" d="M52,6.3c-0.2-0.6-16.2,0.5-16.8,1s-5,19.2-5.5,19.4c-0.5,0.2-4.6-8.6-5.2-8.6c-0.6,0-9.9,13.3-10,14.4
	c-0.1,1.1,6.8,15.1,6.2,15.6s-7-2.6-7.8-2.4S8.4,61.3,8.4,61.9c0,0.6,6,7.6,5.8,8c-0.2,0.4-5.4,0.2-5.7,0.4s-2,9.8-1.8,10.1
	C6.9,80.7,13,87.3,17.9,93c4.8,5.7,9.9,13.1,12,14.6c3.2,2.2,23.6,16.9,35.6,25.2s39.5,24,39.5,30.5s-6.5,10.3-6.5,18.9
	c0,8.6,9.5,19.3,17.2,19.3s7.9-1.4,8.5-1.1c0.6,0.3,0,1.6-5.5,4.9s-9.2,6.1-8.8,6c0.1,0,8.5,10,9,10.2c0.4,0.2,7.7-5.4,15.1-10
	c0.4-0.2,0.2-2.4,0.3-6.2c0.1-3.8,0.3-5.9,0.1-6.5s-14.3-5.6-15.5-13c-1.4-8.5,6.7-10.8,6.8-11.8c0.2-1-7.8-5.4-13.2-18
	s-12.9-33.2-23.6-54.4S72.1,73.5,66.1,56.8s-6.4-18.1-6.9-18.4c-0.5-0.3-7.8-0.1-7.9-0.6C51.2,37.3,52.4,7.5,52,6.3z"/>
<path class="st0" d="M246.2,6.3c0.2-0.6,16.2,0.5,16.8,1c0.7,0.5,5,19.2,5.5,19.4c0.5,0.2,4.6-8.6,5.2-8.6c0.6,0,9.9,13.3,10,14.4
	c0.1,1.1-6.8,15.1-6.2,15.6c0.6,0.5,7-2.6,7.8-2.4s4.5,15.6,4.5,16.2c0,0.6-6,7.6-5.8,8c0.2,0.4,5.4,0.2,5.7,0.4s2,9.8,1.8,10.1
	c-0.2,0.3-6.3,6.9-11.1,12.6c-4.8,5.7-9.9,13.1-12,14.6c-3.2,2.2-23.6,16.9-35.6,25.2c-11.9,8.3-39.5,24-39.5,30.5
	s6.5,10.3,6.5,18.9c0,8.6-9.5,19.3-17.2,19.3s-7.9-1.4-8.5-1.1c-0.6,0.3,0,1.6,5.5,4.9s9.2,6.1,8.8,6c-0.1,0-8.5,10-9,10.2
	c-0.4,0.2-7.7-5.4-15.1-10c-0.4-0.2-0.2-2.4-0.3-6.2c-0.1-3.8-0.3-5.9-0.1-6.5s14.3-5.6,15.5-13c1.4-8.5-6.7-10.8-6.8-11.8
	c-0.2-1,7.8-5.4,13.2-18s12.9-33.2,23.6-54.4s16.7-28.2,22.7-44.9s6.4-18.1,6.9-18.4c0.5-0.3,7.8-0.1,7.9-0.6S245.8,7.5,246.2,6.3z"
	/>
<path class="st0" d="M36.4,152.5l20-19.9c-3.1-2.2-6.5-4.6-9.8-6.9l-25.2,26.3l62.2,61h7.3l52.2,51.2c-2.9-4.5-5.4-9.5-7.3-14.2
	L36.4,152.5z"/>
<path class="st0" d="M241,133.2l19.5,19.3l-74.6,73.2l-0.1,7l20.2-19.8h7.3l62.2-61l-24.7-25.7C247.4,128.6,244.1,131,241,133.2z"/>
<path class="st0" d="M212.1,86l-63.7-66.4L85.6,85.1c2,3.5,4.1,7.5,6.5,12.1l56.3-55.9l57.2,56.8C208,93.5,210.2,89.5,212.1,86z"/>
<path class="st0" d="M182.5,112.2c-0.6-0.2-17,28.3-17,28.3s5.6-19.7,5.6-20.8s-22-35.8-22-35.8s-22,34.7-22,35.8s5.6,20.8,5.6,20.8
	s-16.3-28.5-17-28.3c-0.6,0.2-4.2,12.3-4.2,22.5s4.5,38.8,37.5,47.3c33-8.5,37.5-37.2,37.5-47.3S183.1,112.4,182.5,112.2z
	 M134.7,166.8c-10.9-6.9-8.2-20.4-8.2-20.4C138.1,154.9,134.7,166.8,134.7,166.8z M163.5,166.8c0,0-3.4-11.9,8.2-20.4
	C171.7,146.4,174.5,159.9,163.5,166.8z"/>
</svg>
